<?xml version="1.0" encoding="UTF-8" standalone="no"?>
<svg width="20px" height="20px" viewBox="0 0 20 20" version="1.1" xmlns="http://www.w3.org/2000/svg" xmlns:xlink="http://www.w3.org/1999/xlink">
    <!-- Generator: Sketch 3.7 (28169) - http://www.bohemiancoding.com/sketch -->
    <title>calendar-icon</title>
    <desc>Created with Sketch.</desc>
    <defs></defs>
    <g id="Page-1" stroke="none" stroke-width="1" fill="none" fill-rule="evenodd">
        <g id="calendar-icon" fill="#010002">
            <g id="Capa_1">
                <g id="calendar_1_">
                    <path d="M18.33375,1.875 L15.625,1.875 L15.625,0.625 C15.625,0.279375 15.345625,0 15,0 C14.654375,0 14.375,0.279375 14.375,0.625 L14.375,1.875 L10.625,1.875 L10.625,0.625 C10.625,0.279375 10.345,0 10,0 C9.655,0 9.375,0.279375 9.375,0.625 L9.375,1.875 L5.625,1.875 L5.625,0.625 C5.625,0.279375 5.345,0 5,0 C4.655,0 4.375,0.279375 4.375,0.625 L4.375,1.875 L1.666875,1.875 C0.74625,1.875 0,2.620625 0,3.54125 L0,18.333125 C0,19.25375 0.74625,20 1.666875,20 L18.33375,20 C19.254375,20 20,19.25375 20,18.333125 L20,3.54125 C20,2.620625 19.254375,1.875 18.33375,1.875 L18.33375,1.875 Z M18.75,18.333125 C18.75,18.563125 18.563125,18.75 18.33375,18.75 L1.666875,18.75 C1.436875,18.75 1.25,18.563125 1.25,18.333125 L1.25,3.54125 C1.25,3.311875 1.436875,3.125 1.666875,3.125 L4.375,3.125 L4.375,4.375 C4.375,4.720625 4.655,5 5,5 C5.345,5 5.625,4.720625 5.625,4.375 L5.625,3.125 L9.375,3.125 L9.375,4.375 C9.375,4.720625 9.655,5 10,5 C10.345,5 10.625,4.720625 10.625,4.375 L10.625,3.125 L14.375,3.125 L14.375,4.375 C14.375,4.720625 14.654375,5 15,5 C15.345625,5 15.625,4.720625 15.625,4.375 L15.625,3.125 L18.33375,3.125 C18.563125,3.125 18.75,3.311875 18.75,3.54125 L18.75,18.333125 L18.75,18.333125 Z" id="Shape"></path>
                    <rect id="Rectangle-path" x="4.375" y="7.5" width="2.5" height="1.875"></rect>
                    <rect id="Rectangle-path" x="4.375" y="10.625" width="2.5" height="1.875"></rect>
                    <rect id="Rectangle-path" x="4.375" y="13.75" width="2.5" height="1.875"></rect>
                    <rect id="Rectangle-path" x="8.75" y="13.75" width="2.5" height="1.875"></rect>
                    <rect id="Rectangle-path" x="8.75" y="10.625" width="2.5" height="1.875"></rect>
                    <rect id="Rectangle-path" x="8.75" y="7.5" width="2.5" height="1.875"></rect>
                    <rect id="Rectangle-path" x="13.125" y="13.75" width="2.5" height="1.875"></rect>
                    <rect id="Rectangle-path" x="13.125" y="10.625" width="2.5" height="1.875"></rect>
                    <rect id="Rectangle-path" x="13.125" y="7.5" width="2.5" height="1.875"></rect>
                </g>
            </g>
        </g>
    </g>
</svg>